<svg id="Capa_1" data-name="Capa 1" xmlns="http://www.w3.org/2000/svg" viewBox="0 0 1104.3 633.38"><defs><style>.cls-1{fill:#ee7714;}.cls-2{fill:#9ac32d;}.cls-3{fill:#fefefd;}.cls-4{fill:#ee7814;}.cls-5{fill:#fefefc;}.cls-6{fill:#ee7815;}</style></defs><path id="Guitarra" class="cls-1" d="M1114.23,1072c-.54,6-1.15,12-1.6,18-1,13.49-3,26.86-5.28,40.17a564.26,564.26,0,0,1-14.7,64.42,396.84,396.84,0,0,1-18,49.19,206.47,206.47,0,0,1-12.83,24.31c-1.16,1.86-1.91,2.19-3.06-.12-5.37-10.8-12.92-20-21.71-28.16-1.65-1.52-1.63-2.71-.71-4.55,13.51-27.09,21.66-56,28.37-85.34,3.54-15.48,6.16-31.12,8.35-46.82,1.28-9.15,1.81-18.44,2.65-27.66a329.84,329.84,0,0,0,1.06-44c-1-23.27-3.18-46.41-12.23-68.33a152.14,152.14,0,0,0-22.65-37.82,158.67,158.67,0,0,0-42.5-36.73,139.7,139.7,0,0,0-52.8-18.6c-8-1.1-16.06-2.23-24.14-1.85-18.76.88-36.9,4.47-54.27,12-15.94,6.91-29.58,17.18-43,27.92-15.66,12.58-30.47,26.19-46.5,38.31a95.57,95.57,0,0,1-44.59,18.6c-26,3.77-49.38-3-71.11-17.06-10.79-7-21.45-14.2-33-19.92-10.51-5.22-21.38-9.33-33.46-8.72a70.31,70.31,0,0,0-40.8,15c-15.79,12.37-24.32,28.88-27.33,48.48-.42,2.7-1,5.36-1.58,8-.32,1.44-.13,2.16,1.62,2.32,12.88,1.18,25.76,2.38,38.62,3.71,11.2,1.16,22.38,2.54,33.58,3.72,7,.74,14,1.19,20.95,1.92,9.19,1,18.37,2.09,27.56,3.05,6.85.72,13.73,1.27,20.59,1.95,9.2.92,18.39,1.9,27.59,2.85q10.46,1.08,20.9,2.14,13.8,1.4,27.62,2.76c9.55,1,19.11,1.9,28.66,2.91,9.09.95,18.17,2,27.26,3,3.07.33,6.15.59,9.23.72,4.65.2,5.13,1,4.58,5.65-.68,5.66-.83,11.39-1.32,17.08-.8,9.21-1.75,18.4-2.53,27.61-.69,8.06-1.17,16.13-1.86,24.18-.76,9-1.71,17.94-2.48,26.92-.73,8.4-1.29,16.81-2,25.22-.75,8.86-1.6,17.72-2.35,26.59-.51,5.91-.91,11.83-1.39,17.75-.19,2.24-.41,4.49-.69,6.72-.23,1.87-1.71,1.79-3,1.69-5.68-.44-11.36-.88-17-1.44-7.08-.7-14.15-1.51-21.22-2.28-9.54-1-19.08-2.11-28.63-3.11-6.61-.69-13.25-1.22-19.86-1.9-7.55-.77-15.07-1.69-22.62-2.45-9-.91-18-1.65-26.95-2.56-9.31-1-18.61-2-27.92-3-6.85-.71-13.72-1.26-20.58-2-9.43-1-18.85-2.06-28.29-3-6.85-.71-13.72-1.27-20.57-2-9.44-1-18.85-2.07-28.29-3-6.85-.71-13.73-1.24-20.59-1.94-9.31-1-18.61-2-27.93-3-6.85-.71-13.73-1.29-20.58-2-7.42-.78-14.83-1.69-22.25-2.47-6.62-.69-13.25-1.23-19.87-1.92-9.67-1-19.32-2.1-29-3.09-6.74-.69-13.5-1.2-20.24-1.89-9.43-1-18.84-2.06-28.27-3-6.74-.71-13.49-1.29-20.23-2-9.54-1-19.08-2.09-28.62-3.07-6.86-.7-13.74-1.22-20.6-1.92-9.31-1-18.61-2-27.93-3-7-.71-14-1.29-20.92-2-9.32-1-18.62-2-27.93-3-7-.72-14-1.3-20.92-2-7.19-.74-14.37-1.6-21.56-2.34-6.85-.71-13.72-1.29-20.57-2-9.43-1-18.86-2-28.28-3-6.74-.7-13.47-1.34-20.21-2-5.08-.47-10.17-.83-15.25-1.36-2.37-.24-3.88-1.26-3.62-4.16.54-6,.8-12.08,1.18-18.12-1.21-3-.06-6,0-9,.85-2.41.33-4.94.67-7.38a5.61,5.61,0,0,1,.23-1.08c.71-2.08.18-4.26.56-6.37a7.89,7.89,0,0,1,.23-1c.62-2.09.1-4.28.51-6.4a8.41,8.41,0,0,1,.23-1.11,37.66,37.66,0,0,0,.15-7.58c.13-9.3,1.67-18.49,2.39-27.74.88-2.45.41-5,.72-7.55a6.79,6.79,0,0,1,.22-1.09c.74-2.08.2-4.28.58-6.39a7.89,7.89,0,0,1,.23-1.05c.63-2.09.11-4.27.51-6.38a9.73,9.73,0,0,1,.22-1.1,29.76,29.76,0,0,0,.16-6.93c-.13-7,1.13-13.82,1.7-20.73.82-2.36.41-4.83.63-7.24a6.61,6.61,0,0,1,.2-1.18,136.68,136.68,0,0,0,1.28-14,6.19,6.19,0,0,1,.23-1.12c.78-2.32.16-4.76.58-7.12a6.94,6.94,0,0,1,.23-1.1c.63-1.84,0-3.85.76-5.67a2,2,0,0,1,.87-.86c2.69-.87,5.46-.24,8.19-.52,5.86-.07,11.58,1.31,17.39,1.68,2,.72,4.14.5,6.21.73a6.35,6.35,0,0,1,1,.23c1.83.66,3.78.23,5.65.57a8.49,8.49,0,0,1,1,.22c1.65.56,3.4.21,5.08.53.36.06.71.14,1.06.23a22.65,22.65,0,0,0,5.58.14c7.83.24,15.53,1.74,23.32,2.39,2,.74,4.22.46,6.33.72a8.09,8.09,0,0,1,1.11.23c3.5.45,7,1,10.51,1.23a7,7,0,0,1,1.12.23c2.1.56,4.22.24,6.34.22,5.77.11,11.45,1.11,17.16,1.7,1.9.67,3.9.48,5.86.63a6.49,6.49,0,0,1,1.14.2,94.67,94.67,0,0,0,11.15,1.29,6.56,6.56,0,0,1,1.07.22c1.7.65,3.53.29,5.28.62a8,8,0,0,1,1.08.22,26.8,26.8,0,0,0,6.2.16c5.74.09,11.38,1.11,17.06,1.68,1.85.65,3.8.5,5.71.64a6.6,6.6,0,0,1,1.08.19c1.69.68,3.5.38,5.24.67a8.39,8.39,0,0,1,1,.22c1.86.6,3.82.16,5.71.52a10.16,10.16,0,0,1,1.07.22,21,21,0,0,0,5.6.17c7.8.34,15.5,1.55,23.25,2.37a23.29,23.29,0,0,0,5.58.75,7.56,7.56,0,0,1,1.05.23c1.84.66,3.79.22,5.66.56a7,7,0,0,1,1,.23c1.85.58,3.8.14,5.67.5a7.84,7.84,0,0,1,1.07.23,21.8,21.8,0,0,0,5.59.16c7.6.26,15.08,1.58,22.61,2.38,2,.73,4.12.49,6.18.73a6.25,6.25,0,0,1,1.06.23c1.85.66,3.81.23,5.68.57a8.39,8.39,0,0,1,1,.22c1.85.59,3.8.15,5.67.51a9.66,9.66,0,0,1,1.07.22,21.58,21.58,0,0,0,5.56.18c5.67.07,11.25,1.1,16.87,1.66,1.79.64,3.69.53,5.54.74a6.14,6.14,0,0,1,1.05.23c1.84.65,3.79.21,5.66.55a8.68,8.68,0,0,1,1,.23c1.86.58,3.82.14,5.7.51a7.51,7.51,0,0,1,1.07.22,26.34,26.34,0,0,0,6.21.16c7.59.36,15.06,1.73,22.61,2.38a23.27,23.27,0,0,0,5.57.74,7.26,7.26,0,0,1,1.05.23c1.84.66,3.79.22,5.66.56a7.16,7.16,0,0,1,1,.23c1.85.57,3.8.14,5.68.5a9.49,9.49,0,0,1,1.06.22,25.68,25.68,0,0,0,6.07.19c5.61.14,11.13,1.19,16.69,1.78,2.73.29,3.91-.62,4.54-3.16.8-3.24.85-6.61,1.85-9.8a5.65,5.65,0,0,0,.87-3.56,106.57,106.57,0,0,1,9.85-30.19A108.84,108.84,0,0,1,520,913.14c5.26-5.49,11-10.62,17.93-14.2a8.58,8.58,0,0,0,3.38-2.29A97.64,97.64,0,0,1,574.4,883a17.7,17.7,0,0,0,3.82-.68c15.39-3.67,30.58-2.86,45.77,1.45a147.27,147.27,0,0,1,35.67,15.83c3.9,2.34,8,4.41,11.73,7a10.69,10.69,0,0,0,3.48,2.46c7,4.17,13.66,9.07,21.2,12.43,5.15,2.29,10.57,3.51,16,4.8,2.4.63,4.85.25,7.27.33.56,0,1.12,0,1.68,0a35.07,35.07,0,0,0,6.48-.14,6.1,6.1,0,0,1,1-.26,20.48,20.48,0,0,0,4.05-.65c13.79-3.23,24.35-11.86,34.82-20.68,9.87-8.31,19.5-16.91,29.92-24.55a9.33,9.33,0,0,0,2.57-2.44,233.57,233.57,0,0,1,39.7-27.54c16-8.59,32.94-14.08,50.52-18a17.15,17.15,0,0,1,3.91-.48,14.36,14.36,0,0,0,4-.22c.32-.1.65-.17,1-.24,1.48-.26,3-.05,4.46-.57a5.23,5.23,0,0,1,1-.16c2-.16,4,.23,5.93-.36,12.8.12,25.6-.48,38.37.71,14.41,1.34,28.15,5.23,41.7,10.17a175.47,175.47,0,0,1,34.87,17.46,205.12,205.12,0,0,1,33.67,27.23,202.3,202.3,0,0,1,27.49,34.36c12.48,19.47,20.07,40.87,24.58,63.51,2.84,14.29,3.31,28.69,3.58,43.15,0,.92-.32,1.91.35,2.76v28.74c-.81,3.26-.13,6.57-.38,9.84C1114.58,1069.45,1115.14,1070.79,1114.23,1072Z" transform="translate(-10.77 -830.21)"/><path id="o" class="cls-2" d="M967,1392.44c-20,.21-36.93-4.88-51.77-16.21-17-13-28.4-29.63-31.36-51-3.54-25.62,3.09-48.26,21.7-67,12.4-12.47,26.92-20.93,44.34-23.54,24.42-3.66,47.19.31,67,16.15,13,10.35,23.17,22.9,27.44,39.05,7.52,28.48,2.93,54.45-18,76.5a82.91,82.91,0,0,1-30.8,20.91A74.54,74.54,0,0,1,967,1392.44Z" transform="translate(-10.77 -830.21)"/><path id="Agujero_O" data-name="Agujero O" class="cls-3" d="M925.05,1313c-2.18-20.65,19-42.92,42.38-41.38,20.61,1.36,38.78,18.51,38.76,41.31A41.05,41.05,0,0,1,965,1354.28C943.37,1354.33,923.4,1334.41,925.05,1313Z" transform="translate(-10.77 -830.21)"/><path id="p" class="cls-2" d="M711.74,1463.6c1.5-51,0-101.95.78-152.91a74.36,74.36,0,0,1,22-52.7c12.6-12.83,27.49-21.35,45.23-24.12,24-3.75,46.53.44,66.06,15.6,15.65,12.14,26.56,27.69,30.13,47.51,2.92,16.27,1.7,32.26-5.45,47.42-10,21.14-26.28,35.48-48.17,43.19-11.77,4.15-24.1,5.07-36.62,3.6-9.81-1.15-18.84-4-26.75-10-1.41-1.07-2.76-2.23-4.49-3.63-.32,3.09-.84,5.94-.86,8.8-.1,25.74-.1,51.48-.14,77.22Z" transform="translate(-10.77 -830.21)"/><path id="Agujero_P" data-name="Agujero P" class="cls-3" d="M754.22,1312.25c-.45-21.75,18.44-41.74,41.62-41.29,20.92.4,40.35,19.27,39.76,42.12-.57,22.16-19.2,40.93-41.36,40.6C772.33,1353.34,753.78,1334.2,754.22,1312.25Z" transform="translate(-10.77 -830.21)"/><path id="m" class="cls-2" d="M552.28,1260.61a68.06,68.06,0,0,1,44.77-27.07c22.58-3.72,43.58.3,62,14.61,17.27,13.41,26.66,31.12,29,52.79a104,104,0,0,1,.53,11.41c0,25-.08,50,.13,75.06,0,3.82-1.14,4.47-4.6,4.4q-16.7-.32-33.41,0c-3.12,0-4-.7-4-3.92q.21-39.69.06-79.38c0-16.89-12.3-33.73-31.11-35.6-12.51-1.25-23.51,1.16-32.47,10.14-6.85,6.88-10,15.66-10.19,25.2-.3,16.75-.24,33.52,0,50.28.13,10-.81,20-.68,30.06,0,1.79-.4,2.54-2.37,2.53-12.1-.08-24.2-.14-36.3,0-3,0-2.52-1.74-2.52-3.48,0-26.46.33-52.93-.12-79.38-.31-17.77-11-33-30.12-35.67-11.76-1.65-23.25.06-32.36,8.86-7,6.73-11.09,15.25-11.14,24.79-.12,26.55-1.31,53.09-.81,79.64,0,.84-.08,1.68,0,2.51.22,2-.43,2.72-2.56,2.7-12.19-.07-24.35-1.2-36.55-.69-1.58.06-2.18-.58-2.06-2.11.06-.83,0-1.67,0-2.51,0-24.78-.07-49.56,0-74.34.07-14.48,2.63-28.43,10.06-41.13,11.36-19.42,27.82-31.95,50-36.68,13.22-2.81,26.37-2.86,39.39,1.24C529.81,1239.61,542.65,1247.39,552.28,1260.61Z" transform="translate(-10.77 -830.21)"/><path id="a" class="cls-2" d="M357.69,1372.87a52.66,52.66,0,0,1-16,12c-11,5.12-22.54,6.09-34.52,5.14a83.39,83.39,0,0,1-20.59-4c-16.78-5.76-30.17-16.15-40.53-30.43a72.12,72.12,0,0,1-13.94-42c-.24-12.35,1.46-24.2,6.61-35.46,4.95-10.83,12.43-19.78,21.39-27.47a77.89,77.89,0,0,1,36.48-17.76c25.88-5,49.56-.11,70.25,16.43,14.66,11.73,24.61,26.72,28.18,45.46a79.69,79.69,0,0,1,1.71,15.19c-.05,25.51-.08,51,.06,76.51,0,3.18-.8,4-4,4-10.78-.21-21.56-.16-32.34,0-2.47,0-3.19-.6-3.28-3.15C357,1382.76,358.4,1378.31,357.69,1372.87Z" transform="translate(-10.77 -830.21)"/><path id="Agujero_A" data-name="Agujero A" class="cls-3" d="M313.79,1351.67c-20.84,1.19-40.44-18-40.4-40.91s19.1-41.43,41.06-41.45c21.45,0,41.62,19.37,40.41,43.72C353.9,1332.34,336.46,1353.16,313.79,1351.67Z" transform="translate(-10.77 -830.21)"/><path id="c" class="cls-2" d="M10.83,1275.51c-.59-20.86,3.15-39.3,12-56.42,12-23.23,30-40.31,54.17-50.7,13-5.61,26.62-8.38,40.77-9.27,17.75-1.12,34.93.87,51.41,7.68a94.05,94.05,0,0,1,28.94,18.75,133.18,133.18,0,0,1,25.18,32.73c1.51,2.72.86,3.85-1.75,5.08-10.14,4.81-20.26,9.68-30.23,14.82-2.8,1.44-4,.67-5.25-1.69a82,82,0,0,0-15.31-20.1,58.75,58.75,0,0,0-33.4-16.43c-18.75-2.56-36.71.19-52.76,10.63a68,68,0,0,0-29.72,41.77c-5.82,23.23-3.45,45.43,9.58,65.74a65,65,0,0,0,38.07,28c16.31,4.62,32.65,5.06,48.65-1.26,13.55-5.35,23.53-15.06,31.39-27.12a27.91,27.91,0,0,0,3-4.84c1.28-3.37,2.83-3.84,6.11-2.09,10,5.32,20.21,10.35,30.41,15.32,2.24,1.09,2.32,2.11,1.21,4.06-12.18,21.36-27.69,39.34-50.49,49.95a102.74,102.74,0,0,1-36.05,9.24A132.72,132.72,0,0,1,88,1384.3a105.7,105.7,0,0,1-39.12-21.58A109.65,109.65,0,0,1,11.33,1290C10.76,1284.62,11.05,1279.28,10.83,1275.51Z" transform="translate(-10.77 -830.21)"/><path id="E" class="cls-4" d="M965.28,1178.4c-8.85-.94-17.7-1.84-26.54-2.81q-13.61-1.52-27.21-3.14c-4.53-.54-5.81-2.55-5.25-7,1-7.76,1.63-15.56,2.44-23.34q1.46-13.78,2.94-27.58,1.33-12.36,2.74-24.72c.39-3.42.78-6.84,1.32-10.24.37-2.28,1.68-3.49,4.23-3.37,8.92.41,17.79,1.25,26.65,2.29,9.65,1.13,19.3,2.31,29,3.34,6,.63,6.88,2,6.46,7.92-.32,4.63-1,9.2-1.37,13.81-.41,5.22-1.38,6.23-6.52,5.71-8.26-.82-16.55-1.48-24.75-2.73-3.42-.53-4.45.3-4.82,3.52-.55,4.8-.54,5.18,4.23,5.77q12.53,1.55,25.09,2.8c1.93.19,2.37,1,2.41,2.71.12,6-1,11.82-1.57,17.73-.17,1.82-1.19,3-3.39,2.72-7.43-.78-14.88-1.44-22.33-2.15-.59-.06-1.17-.24-1.76-.29-5.43-.39-7.77,2.3-6.66,7.57.28,1.34,1.38,1.19,2.25,1.29q7.42.88,14.86,1.63c4.6.47,9.22.81,13.81,1.35,2.37.28,3.85,1.35,3.51,4.24-.76,6.36-1.16,12.76-1.93,19.12a3.67,3.67,0,0,1-4.17,3.54c-1.19-.07-2.4,0-3.6,0Z" transform="translate(-10.77 -830.21)"/><path id="D" class="cls-4" d="M905.65,1098.86a265.86,265.86,0,0,1-6.31,52.88,31.73,31.73,0,0,1-3.7,9.24c-2.75,4.65-7.35,6.24-12.4,6.43-11.44.43-22.77-1-34.08-2.5-5.65-.78-11.34-1.28-17-1.84-6.7-.65-8-2.33-7.25-8.91,1.16-10.36,2.09-20.74,3.22-31.11,1.16-10.72,2.45-21.43,3.66-32.15.68-6,1.41-12,2-18s2.39-7.24,8.38-6.34c5.51.84,11.13.94,16.69,1.46,11.33,1.07,22.69,2,33.76,4.82,9.71,2.45,12.06,6.74,13.06,17.42C905.87,1093.09,905.65,1096,905.65,1098.86Z" transform="translate(-10.77 -830.21)"/><path id="Agujero_D" data-name="Agujero D" class="cls-5" d="M873,1098.75c-1.07,11.12-1.8,22.13-3.61,33-.35,2.1-.44,4.25-.82,6.35-.6,3.39-2.12,4.29-5.63,3.55-2.83-.59-3.1-2-2.66-4.86,1.27-8.44,1.85-17,2.68-25.47.46-4.73.74-9.48,1.4-14.18.21-1.5.19-3.85,3-3.47C872.12,1094.32,873.09,1095.17,873,1098.75Z" transform="translate(-10.77 -830.21)"/><path id="L" class="cls-3" d="M736.33,1048.72c5,.08,12.89,1.18,20.73,2.49,4.21.71,5.28,2.44,4.77,6.8-1.9,16.24-3.76,32.48-5,48.78-.38,4.83-1.13,9.63-1.84,14.43-.6,4.08-.08,4.58,4.06,4.93,5.42.45,10.81,1.27,16.23,1.85,1.91.2,2.81,1.15,2.74,3a270.31,270.31,0,0,1-2.67,28c-.42,2.94-2.47,4.27-5.36,4.08-6.28-.4-12.57-.76-18.83-1.38-8.73-.87-17.43-1.94-26.14-3-2.23-.26-4.42-.77-6.65-1.1-3.2-.47-4.2-2.95-4-5.44.83-9.91,2.06-19.77,3-29.67.89-9.09,1.53-18.21,2.47-27.3,1.25-12.13,2.68-24.24,4-36.36,0-.47.23-.93.28-1.4C725.05,1048.72,725,1048.72,736.33,1048.72Z" transform="translate(-10.77 -830.21)"/><path id="A-2" data-name="A" class="cls-3" d="M694.77,1155.5a179.81,179.81,0,0,1-23-2.3c-3.74-.66-5-2.84-5.07-6.16-.08-3-.08-6,0-9,.05-1.73-.36-2.58-2.36-2.64a83.18,83.18,0,0,1-9.58-.88c-2-.29-2.16,1-2.43,2.29-.49,2.33-.84,4.68-1.36,7-1.37,6.19-2.13,7.06-8.44,6.56-8.27-.64-16.58-1-24.74-2.87-3.41-.79-4.46-2.4-3.72-5.75,2.87-13,7-25.62,10.63-38.4,5.44-19.3,11-38.56,16.54-57.82,1.95-6.81,3.44-6,11-5.56,5.91.32,11.79,1.15,17.68,1.8,7.18.8,14.37,1.56,21.53,2.54,3.23.44,4.39,2.91,4.61,5.93q1.3,18.1,2.61,36.22c.79,10.91,1.53,21.82,2.42,32.72.76,9.45,1.69,18.89,2.57,28.33a15.78,15.78,0,0,1-1.1,6.27,2.43,2.43,0,0,1-2.77,1.72C698.12,1155.44,696.45,1155.5,694.77,1155.5Z" transform="translate(-10.77 -830.21)"/><path id="Agujero_A-2" data-name="Agujero A" class="cls-6" d="M666.66,1072.54c0,6.12.17,11.74,0,17.34s.6,11.43.75,17.15c.06,2.45-.82,3.24-3.09,2.92-1.64-.24-3.28-.52-4.94-.64-1.39-.11-1.57-1-1.35-2q3.76-17,7.63-33.92C665.65,1073.24,665.92,1073.14,666.66,1072.54Z" transform="translate(-10.77 -830.21)"/><path id="V" class="cls-3" d="M571.84,1107.13c1.94-3.84,2.22-8.06,3-12.15,3.52-18.37,6.93-36.76,10.51-55.12,1-5.13,1.73-5.54,7-5.51,8.7.06,17.28,1.34,25.84,2.65,4.27.65,5.43,2.43,4.52,6.79-1.09,5.22-2.48,10.37-3.86,15.52q-10.33,38.3-20.72,76.59c-2.9,10.74-3,9.32-13.19,8.76-11.58-.64-23.11-2.3-34.65-3.55-1.77-.19-3.52-.49-5.27-.81-3.84-.71-4.31-3.89-4.5-6.83-.6-8.91-.84-17.83-1.41-26.74-.74-11.49-1.86-23-2.44-34.45-.38-7.5-.66-15-1.21-22.48-.36-5-.58-10-.63-15-.05-4.5,1-5.41,5.43-5.48,9.2-.14,18.27,1.06,27.32,2.5,3.21.51,4.89,2.14,4.79,5.82-.24,8.61.43,17.27-.19,25.84C571.14,1078,572.2,1092.55,571.84,1107.13Z" transform="translate(-10.77 -830.21)"/><path id="I" class="cls-3" d="M495.9,1024.34a157.06,157.06,0,0,1,23.65,2.88c3,.66,4.09,2.29,3.91,5-.55,7.82-1.15,15.65-1.89,23.46-.71,7.42-1.59,14.82-2.43,22.23-1.3,11.31-1.93,22.69-3.6,34-.91,6.09-1.49,12.23-2,18.35-.41,4.58-1.63,5.9-6.11,5.92-8.95.05-17.79-1.2-26.62-2.46-4.61-.66-5.53-2.57-4.93-7.47.71-5.89.9-11.83,1.47-17.74.9-9.44,1.94-18.87,2.9-28.31.71-7,1.36-13.92,2.09-20.88,1-9.79,1.93-19.59,3.23-29.35C486.26,1024.49,486.88,1024.34,495.9,1024.34Z" transform="translate(-10.77 -830.21)"/><path id="T" class="cls-3" d="M403.17,1118.86c.93-8.47,1.93-16.94,2.78-25.42.7-7,1.18-14,1.86-21,.52-5.42,1.19-10.82,1.83-16.23.33-2.8.78-5.38-3.54-5.39-4,0-8-.74-12.06-.95-4.54-.25-6-2.29-5.8-6.87.34-7.37,1.58-14.63,2.1-22,.37-5.3,3.09-7.12,8.39-6.44,6,.77,12.1.91,18.14,1.5,9.43.92,18.86,2,28.28,3,7.08.81,14.19,1.29,21.22,2.56,6,1.07,7.21,2.5,6.53,8.57-.79,7.17-1.68,14.34-2.58,21.5-.58,4.66-1.93,5.65-6.49,5.08-4.93-.61-9.89-1.06-14.82-1.76-1.36-.19-1.68.16-1.79,1.36-.79,8.39-1.55,16.78-2.43,25.16-1,9.3-2.12,18.58-3.14,27.88-.46,4.13-.9,8.27-1.21,12.41-.41,5.51-1.7,6.75-7.25,6.77-8.7,0-17.26-1.35-25.82-2.66C403.11,1125.37,403.11,1122.17,403.17,1118.86Z" transform="translate(-10.77 -830.21)"/><path id="S" class="cls-3" d="M347.06,1120.61a220.06,220.06,0,0,1-43.42-4.87c-13-2.71-14.38-8.79-15.19-18.61-.52-6.28.51-12.55,1.21-18.81.24-2.18,1.41-2.67,3.35-2.8,4.56-.3,9,.55,13.55.82,4.73.29,9.41,1.21,14.14,1.58,3.34.27,5.08,1.48,4.59,5.1a36.53,36.53,0,0,0,0,5c0,4.2.55,4.76,4.64,4.93,3.91.16,5-.71,5.34-4.48.44-4.48.74-9,1.33-13.44.37-2.77-1.14-3.55-3.33-3.78-4.71-.5-9.43-.9-14.14-1.37-8-.81-16.07-1.55-24.08-2.51-2.19-.26-3.53-1.63-3.46-4.2.25-8.79,1.39-17.5,2.31-26.23.64-6,1.19-12,2.83-17.88,2.78-9.87,6.21-13,16.29-13.34a183.26,183.26,0,0,1,27.07,1.46c6.83.76,13.59,1.94,20.34,3.2,11.71,2.2,15.66,6.12,16.79,17.72.58,6-.18,12.1-1.08,18.12-.37,2.46-1.47,3.06-3.79,3.06-9.66,0-19.17-1.54-28.73-2.56-2.14-.23-3.83-1.28-3.35-4a19.2,19.2,0,0,0,0-3.22c0-5.53-.63-6.23-6-6.24a3.55,3.55,0,0,0-3.79,3.46c-.51,4.48-.81,9-1.36,13.47-.28,2.22.77,3,2.69,3.23l19.83,2.11c6.36.67,12.73,1.25,19.08,2,2.27.28,3.43,1.67,3.4,4.21-.08,7.63-1.08,15.18-1.79,22.75-.68,7.18-1.23,14.37-3.05,21.39-3.17,12.24-6.31,14.7-18.95,14.7Z" transform="translate(-10.77 -830.21)"/><path id="E-2" data-name="E" class="cls-3" d="M235.24,1075.24c-.33,2.13.35,3.22,3.21,3.46,10.51.86,21,2.08,31.49,3.19,4.46.48,5.35,1.85,4.72,6.88-.67,5.41-1.34,10.82-1.91,16.24s-3.07,7.36-8.65,6.68c-6.13-.75-12.31-1.12-18.46-1.74-7.66-.78-15.3-1.75-23-2.43-7.09-.64-14.15-1.43-21.2-2.49-3.3-.49-4.63-2.2-4.37-5.29.55-6.61,1.22-13.2,1.83-19.81.63-6.86,1.19-13.73,1.88-20.58.77-7.54,1.7-15.06,2.48-22.6.68-6.62,1.2-13.25,1.9-19.86.59-5.66,1.23-11.31,2-16.94.45-3.17,2.63-4.59,5.9-4.3,11.47,1,23,1.88,34.42,3.07,10.13,1,20.23,2.46,30.34,3.69,3.28.4,5.13,2.35,4.77,5.5-.83,7.06-.94,14.2-2.29,21.22-.51,2.67-1.82,3.61-4.43,3.32-11-1.22-21.95-2.31-32.9-3.61-2.43-.29-3.34.6-3.43,2.81,0,.72,0,1.44-.05,2.15-.79,6.69-.8,6.67,5.52,7.35,9.44,1,18.86,2.11,28.3,3.06,1.78.18,2.58.79,2.59,2.62,0,7-1.09,13.94-2,20.87-.27,2-1.82,2.36-3.49,2.19-8.86-.92-17.75-1.63-26.56-2.88C236.83,1066,235.22,1067.21,235.24,1075.24Z" transform="translate(-10.77 -830.21)"/><path id="F" class="cls-3" d="M192.74,1001.86c-.59,5.62-1.26,12.59-2.08,19.54-.3,2.48-1.75,3.8-4.46,3.48q-13.41-1.56-26.83-3c-2-.22-3.15,0-3.61,2.6-.53,3-.14,6.15-1.06,9.15-.54,1.73,0,3,2.46,3.28,8.38.82,16.73,1.93,25.15,2.38,2.63.14,3.91,1.46,3.62,4.18-.68,6.25-1.27,12.5-2,18.74-.25,2.21-1.17,3.71-3.92,3.41-7.91-.85-15.84-1.43-23.73-2.3-4-.44-4.34-.22-4.78,3.92-1,9.41-2.16,18.81-3.22,28.22-.31,2.79-1.93,4-4.6,3.86a201.27,201.27,0,0,1-27.91-3.09c-3.07-.6-3.85-3-3.62-5.71q1.08-12.21,2.36-24.42c1-9.77,2.12-19.53,3.12-29.3.69-6.74,1.15-13.5,1.9-20.23.93-8.46,1.58-17,3.2-25.33.51-2.63,1.81-3.87,4.63-3.86,10.24,0,20.37,1.35,30.51,2.53,7.78.9,15.58,1.67,23.37,2.51,2.12.22,4.26.35,6.35.71C192,993.86,192.74,995.08,192.74,1001.86Z" transform="translate(-10.77 -830.21)"/><path class="cls-4" d="M250.16,907.56a13,13,0,0,1,5,5,14,14,0,0,1-.09,7.85l.06-.08c-.82,1.87.45,4-.75,5.84l.06-.07c-.69,1.64,0,3.4-.45,5.06a.4.4,0,0,0-.26.51c-.71,1.94,0,4-.49,6-.88,1.86-.76,4-.82,5.89-.3,8.77-6.5,9.65-12.83,8.77-3.83-.53-7.66-1.25-11.57-1-1.86-.93-4,.31-5.84-.74l0,0c-1.86-.85-3.9.12-5.78-.57a7.47,7.47,0,0,1-5.6-7.11c-.23-5.8,1.53-11.44,1.33-17.24.93-2.13-.44-4.53.79-6.63l-.06.08c.85-1.87-.37-4,.75-5.84l0,.07c.76-1.39-.14-3,.6-4.38,3.24-5.79,8.66-4,13.53-3.76,6,.35,12,1.88,18,1.63C247.12,907.66,248.83,906.49,250.16,907.56Z" transform="translate(-10.77 -830.21)"/><path class="cls-4" d="M89.85,903.88a35.31,35.31,0,0,1,.49-6c1.33-5.36,5.06-7.28,12.14-6a41.5,41.5,0,0,0,7.44.51c1.86.93,4-.24,5.83.69h0c1.82,1,3.92-.21,5.75.71h0c1.55,1,3.47-.29,5,.8,4.61,2.31,5.83,4.87,5.07,10a39.55,39.55,0,0,0-.05,5.66c-.95,1.85.27,4-.72,5.81h0c-1,2.07.27,4.4-.74,6.48l0,0c-1,1.84.25,3.94-.71,5.78h0c-1,1.82.17,3.89-.66,5.73-.83,2.24-2.62,3.67-4.38,5.11a27.45,27.45,0,0,1-8.63,0l-.07,0c-2-1-4.28.08-6.35-.64-4.79-.54-9.57-1.22-14.38-1.59-5.75-.45-7.86-2.59-7.92-8.52.94-2.1-.28-4.44.73-6.53l0,0c1-1.83-.26-3.94.72-5.77h0c1-2.08-.24-4.4.73-6.48h0C90.12,907.8,88.93,905.71,89.85,903.88Z" transform="translate(-10.77 -830.21)"/><path class="cls-4" d="M181.13,900.16c2,.74,4.16.3,6.25.9,4.07,1.18,5.93,3.29,6,7.55,0,2,0,4,0,6-1,2.08.2,4.38-.68,6.47l0,0c-1,1.82.16,3.89-.68,5.73l0,0c-1,1.81.12,3.87-.67,5.71l0,.06c-1,2,.13,4.3-.67,6.36-1.51,5.28-3.78,7-9.39,7.2-2.09-1-4.42.24-6.51-.71h0c-1.84-1-3.93.22-5.77-.7h0c-2.07-1-4.38.21-6.46-.72h0c-1.83-1-3.89.16-5.72-.65-7.17-1.43-9-4.35-7.48-11.61a31.72,31.72,0,0,0,.3-4.89c1-2.1-.37-4.47.77-6.55l0,.06c.93-1.85-.34-4,.74-5.81l0,.05c1-2.09-.34-4.44.74-6.52l0,0c.89-1.61-.25-3.49.69-5.09.73-2.64,2.82-3.95,5-5.12a12.11,12.11,0,0,1,5.74.06h0c1.82,1,3.89-.13,5.73.67l.06,0c1.81,1,3.86-.1,5.69.66l.08,0C176.82,900.54,179.07,899.44,181.13,900.16Z" transform="translate(-10.77 -830.21)"/></svg>