<svg id="Capa_1" data-name="Capa 1" xmlns="http://www.w3.org/2000/svg" viewBox="0 0 210.17 19.88"><defs><style>.cls-1,.cls-2{fill:#1d1d1b;}.cls-1{fill-rule:evenodd;}</style></defs><g id="WEB"><g id="AVISO-LEGAL"><g id="Group-11"><g id="vectormatelier"><path id="Path" class="cls-1" d="M17.27,2.21l-4.6,10.1q-1.5,3.33-3,6.65c-.14.31-.17.84-.6.82s-.43-.54-.57-.86Q4.84,11,1.23,3.07a2.28,2.28,0,0,0-.6-.84v16.5c0,.26,0,.53,0,.8s-.07.32-.29.32-.27-.15-.28-.33,0-.4,0-.6Q0,10,.05,1.16C.05.85-.15.37.26.27S.75.72.89,1Q4.68,9.29,8.47,17.58c.16.36.33.71.53,1.12a2.27,2.27,0,0,0,.64-1.05q3.75-8.25,7.49-16.5A4.54,4.54,0,0,1,17.34.7c.12-.18.15-.51.45-.45s.26.41.29.66c0,.09,0,.2,0,.3q0,8.88,0,17.76c0,.2,0,.4,0,.6a.25.25,0,0,1-.09.22.27.27,0,0,1-.23.05.21.21,0,0,1-.17-.08.2.2,0,0,1-.06-.18c0-.27,0-.54,0-.8V2.25Z" transform="translate(0 0)"/><path id="Shape" class="cls-2" d="M209.83,19.84c-.51-.07-.47-.53-.59-.83-1.11-2.72-2.19-5.44-3.26-8.17-.21-.56-.47-.7-1.09-.68-2.57.08-5.15.09-7.73.05-.76,0-1,.21-.95,1,0,2.51,0,5,0,7.52,0,.24,0,.47,0,.71s0,.36-.26.34-.21-.22-.22-.38,0-.4,0-.6c0-5.85,0-11.71,0-17.56,0-.8.23-1,1-1,2.58,0,5.15,0,7.73,0a5.85,5.85,0,0,1,2.44.49,4.83,4.83,0,0,1,3.27,4.51A4.62,4.62,0,0,1,207,9.65c-.81.33-.84.63-.53,1.37,1.09,2.61,2.11,5.25,3.16,7.89C209.77,19.2,210,19.47,209.83,19.84ZM201,.79v0c-1.34,0-2.68,0-4,0-.49,0-.74.1-.74.66,0,2.54,0,5.08,0,7.62,0,.45.14.66.63.65,2.74,0,5.48,0,8.22-.06a4.65,4.65,0,0,0,4.55-4.56A4.75,4.75,0,0,0,205.07.81c-1.36-.08-2.74,0-4.1,0Z" transform="translate(0 0)"/><path id="Path-2" data-name="Path" class="cls-1" d="M89.88,10c0-2.94,0-5.88,0-8.82,0-.74.15-1.07,1-1.06,4,0,8.09,0,12.14,0,.26,0,.72-.18.75.22s-.49.32-.76.32c-3.85,0-7.69,0-11.54,0-.83,0-1.08.22-1.06,1.06.06,2.3.05,4.61,0,6.92,0,.78.2,1,1,1,2.5-.05,5,0,7.52,0h.7c.23,0,.54-.06.55.27s-.31.27-.52.27H97.53c-2.07,0-4.14,0-6.22,0-.68,0-.94.17-.93.89q.06,3.66,0,7.32c0,.69.25.83.88.83,3.67,0,7.35,0,11,0a3.28,3.28,0,0,1,.7,0c.28.05.79-.24.76.32s-.48.23-.73.23c-2.38,0-4.75,0-7.12,0-1.71,0-3.41,0-5.12,0-.71,0-.92-.22-.91-.91C89.89,16,89.88,13,89.88,10Z" transform="translate(0 0)"/><path id="Path-3" data-name="Path" class="cls-1" d="M165.36,10c0-2.94,0-5.88,0-8.83,0-.75.17-1,1-1,4,0,8.09,0,12.13,0,.26,0,.73-.17.75.23s-.5.32-.78.32c-3.84,0-7.69,0-11.53,0-.85,0-1.07.25-1.06,1.07.06,2.34,0,4.68,0,7,0,.71.22.92.92.91,2.57,0,5.15,0,7.72,0h.7c.2,0,.44,0,.45.27s-.26.27-.44.27H172.4c-1.91,0-3.81,0-5.72,0-.61,0-.82.18-.81.8,0,2.48,0,4.95,0,7.42,0,.71.27.82.88.82,3.81,0,7.63,0,11.44,0h.7c.23,0,.4,0,.37.33s-.21.22-.37.23-.53,0-.8,0c-3.91,0-7.82,0-11.73,0-.83,0-1-.27-1-1C165.38,15.92,165.36,13,165.36,10Z" transform="translate(0 0)"/><path id="Path-4" data-name="Path" class="cls-1" d="M41.84,1.18,39.39,6.72,34,19.09a.24.24,0,0,1,0,.09c-.19.24-.17.82-.61.64s0-.57.09-.81c1.17-2.73,2.38-5.44,3.57-8.16Q39.15,5.9,41.33,1c.12-.27.14-.67.48-.7s.44.43.57.72q4,9.06,8,18.14c.09.2.53.53,0,.72s-.44-.3-.56-.55q-3.72-8.43-7.42-16.86C42.25,2.06,42.08,1.71,41.84,1.18Z" transform="translate(0 0)"/><path id="Path-5" data-name="Path" class="cls-1" d="M120,10V1.3c0-.27,0-.54,0-.8a.26.26,0,0,1,.06-.18.27.27,0,0,1,.18-.08c.19,0,.22.15.23.27,0,.3,0,.6,0,.9,0,5.61,0,11.23,0,16.85,0,.84.24,1.06,1.06,1,3,0,6,0,8.92,0h.71c.17,0,.33.05.34.27s-.14.28-.32.28h-.5c-3.28,0-6.55,0-9.83,0-.73,0-.9-.27-.89-.93C120,16,120,13,120,10Z" transform="translate(0 0)"/><path id="Path-6" data-name="Path" class="cls-1" d="M147.77,10.07c0,3,0,5.95,0,8.92,0,.29.23.79-.25.82s-.31-.49-.31-.76q0-9,0-18c0-.28-.23-.8.3-.78s.26.53.26.82C147.78,4.06,147.77,7.07,147.77,10.07Z" transform="translate(0 0)"/><path id="Path-7" data-name="Path" class="cls-1" d="M62.14.58H59.63c-.21,0-.51.09-.54-.26s.29-.3.49-.3H64.7c.2,0,.53-.11.54.25s-.36.3-.59.31C63.81.59,63,.58,62.14.58Z" transform="translate(0 0)"/><path id="Path-8" data-name="Path" class="cls-1" d="M74.65.57h-2.6c-.21,0-.51.06-.5-.31S71.81,0,72,0h5.3c.19,0,.43,0,.4.29s-.25.27-.45.27C76.39.58,75.52.57,74.65.57Z" transform="translate(0 0)"/><path id="Path-9" data-name="Path" class="cls-1" d="M68.24,3.92V1.33c0-.19,0-.45.29-.41s.2.24.2.4c0,1.77,0,3.53,0,5.29,0,.18,0,.45-.25.45s-.24-.26-.24-.44c0-.9,0-1.8,0-2.7Z" transform="translate(0 0)"/><path id="Path-10" data-name="Path" class="cls-1" d="M68.24,16.56V14c0-.18,0-.44.25-.45s.24.21.24.36c0,1.81,0,3.61,0,5.41,0,.15,0,.36-.25.35s-.23-.21-.23-.36c0-.9,0-1.81,0-2.71h0Z" transform="translate(0 0)"/></g></g></g></g></svg>
